<?xml version="1.0" ?><svg id="Layer_1" style="enable-background:new 0 0 32 32;" version="1.1" viewBox="0 0 32 32" xml:space="preserve" xmlns="http://www.w3.org/2000/svg" xmlns:xlink="http://www.w3.org/1999/xlink"><style type="text/css">
	.st0{fill:#222A30;}
	.st1{fill:#868687;}
	.st2{fill-rule:evenodd;clip-rule:evenodd;fill:#222A30;stroke:#222A30;stroke-width:0.776;}
	.st3{fill-rule:evenodd;clip-rule:evenodd;fill:#222A30;fill-opacity:0;stroke:#222A30;stroke-width:0.776;}
	.st4{fill:none;stroke:#222A30;stroke-width:1.5556;stroke-opacity:0.5;}
	.st5{fill:none;stroke:#222A30;stroke-width:1.5556;}
	.st6{fill:#070707;}
</style><g id="ball"><path class="st0" d="M13.8,12l2.3,2.4l9.2-8.9c-1.8-1.6-3.9-2.7-6.2-3.2C18.3,5.7,16.4,9.2,13.8,12z"/><path class="st0" d="M2,16.2c2.9-0.6,5.9-2.1,8.4-4.3l-5-5.2C3.1,9.4,2,12.8,2,16.2z"/><path class="st0" d="M14.3,16l-2.3-2.4c-2.9,2.5-6.4,4.3-9.8,4.9c0.4,2.3,1.4,4.4,2.9,6.3L14.3,16z"/><path class="st0" d="M19.8,21.6c-2.3,2.5-4,5.5-4.6,8.4c3.4,0.2,6.9-0.8,9.7-3.1L19.8,21.6z"/><path class="st0" d="M26.9,7.2L17.6,16l2.2,2.3c2.9-2.6,6.5-4.3,9.9-4.9C29.3,11.1,28.4,9,26.9,7.2z"/><path class="st0" d="M7.2,5.1l5,5.2C14.4,7.9,16,4.9,16.8,2C13.4,1.8,10,2.9,7.2,5.1z"/><path class="st0" d="M18.1,19.9L16,17.6l-9.2,8.9c1.8,1.6,3.9,2.6,6,3.1C13.6,26.2,15.5,22.8,18.1,19.9z"/><path class="st0" d="M30,15.7c-3,0.6-6,2.1-8.6,4.3l5.1,5.3C28.9,22.5,30.1,19.1,30,15.7z"/></g></svg>